<svg
  xmlns="http://www.w3.org/2000/svg"
  xmlns:xlink="http://www.w3.org/1999/xlink"
  width="1488px"
  height="311px"
  viewBox="0 0 1488 311"
>
  <path
    fill-rule="evenodd"
    fill="#1f3b2a"
    d="M1414.131,306.948 L1410.371,306.948 C1397.229,306.948 1389.634,303.151 1387.583,295.554 L1387.583,284.160 C1387.583,274.894 1398.977,253.322 1421.765,219.442 L1421.765,211.808 C1402.168,211.808 1367.909,242.269 1318.991,303.188 L1303.837,306.948 C1301.254,302.011 1299.963,298.214 1299.963,295.554 C1325.333,254.308 1338.019,227.646 1338.019,215.568 L1338.019,211.808 C1336.955,211.278 1335.929,211.011 1334.943,211.011 C1332.967,211.011 1331.106,212.036 1329.360,214.087 C1299.963,251.231 1282.226,269.804 1276.150,269.804 C1274.920,269.804 1274.167,269.033 1273.885,267.498 C1271.034,268.577 1268.445,269.120 1266.123,269.120 C1257.615,269.120 1252.602,262.056 1251.083,247.927 L1251.083,244.167 C1201.936,286.022 1172.425,306.948 1162.552,306.948 L1162.552,303.302 C1160.045,303.302 1158.792,304.518 1158.792,306.948 C1146.789,306.948 1135.396,298.972 1124.610,283.021 C1124.688,282.873 1124.777,282.725 1124.857,282.578 C1114.394,289.392 1101.647,296.638 1086.554,304.328 L1065.930,303.188 C1057.499,298.175 1053.283,292.440 1053.283,285.983 L1053.283,285.186 C1053.358,283.060 1058.296,276.451 1068.095,265.360 L1068.323,261.942 C1057.992,269.159 1052.067,272.766 1050.548,272.766 C1050.321,272.766 1050.207,272.652 1050.207,272.424 L1048.123,270.720 C1036.107,280.595 1019.679,292.668 998.820,306.948 C986.514,306.948 974.169,300.758 961.789,288.376 L961.789,278.601 C948.356,287.614 934.115,294.712 919.062,299.884 C915.871,303.607 901.590,305.771 876.220,306.378 L868.814,305.695 C865.564,305.190 861.489,299.151 856.591,287.590 C840.714,301.782 827.468,308.885 816.857,308.885 C815.869,308.885 814.920,308.809 814.009,308.657 L814.578,307.404 L797.146,307.404 C788.105,302.923 783.587,296.163 783.587,287.123 L780.283,287.123 C771.926,294.796 759.506,302.695 743.024,310.822 L732.883,310.822 C729.389,310.822 724.868,306.304 719.325,297.263 L719.325,290.541 C719.325,286.564 719.771,282.617 720.619,278.697 C702.002,297.531 685.961,306.948 672.495,306.948 L668.735,306.948 C655.593,306.948 647.998,303.151 645.947,295.554 L645.947,284.160 C645.947,274.894 657.341,253.322 680.129,219.442 L680.129,211.808 C660.531,211.808 626.273,242.269 577.355,303.188 L562.201,306.948 C559.618,302.011 558.327,298.214 558.327,295.554 C583.697,254.308 596.383,227.646 596.383,215.568 L596.383,211.808 C595.319,211.278 594.293,211.011 593.307,211.011 C591.331,211.011 589.470,212.036 587.724,214.087 C576.093,228.783 566.295,240.560 558.314,249.442 C557.291,252.062 555.588,255.789 553.200,260.632 C549.021,269.102 539.830,276.603 525.626,283.135 C523.271,289.820 505.838,296.580 473.328,303.416 C464.820,296.733 460.567,290.048 460.567,283.363 L460.567,282.679 L453.616,282.679 C431.056,298.784 419.130,306.834 417.839,306.834 L400.748,306.834 C380.999,306.834 371.124,297.491 371.124,278.805 C371.124,277.819 371.163,276.831 371.238,275.843 C416.660,222.974 457.072,196.540 492.470,196.540 C498.697,203.832 501.813,209.378 501.813,213.175 L501.813,213.631 C518.751,202.237 529.386,196.540 533.716,196.540 L540.097,206.795 L488.368,279.261 L488.026,286.097 L491.444,286.097 C503.616,285.007 517.238,277.562 532.306,263.775 C565.009,216.143 590.053,192.324 607.435,192.324 C608.877,192.324 610.284,192.478 611.651,192.780 C624.336,192.780 630.679,204.213 630.679,227.076 L676.369,196.540 C678.876,196.540 680.129,197.833 680.129,200.414 L687.763,196.540 L699.157,196.540 C702.575,196.540 708.917,202.883 718.185,215.568 C718.185,228.102 708.044,244.623 687.763,265.132 L691.523,284.160 C706.259,279.603 718.488,269.501 728.212,253.852 C733.528,245.269 737.669,240.977 740.631,240.977 C741.204,240.977 741.730,241.147 742.214,241.476 C758.563,224.475 783.657,208.052 817.541,192.210 L827.796,192.210 L841.240,199.047 L973.411,19.477 C973.411,14.996 977.929,12.755 986.970,12.755 L993.692,22.895 L993.692,33.036 C921.529,132.317 861.711,211.392 814.237,270.259 L810.818,287.123 L810.818,293.845 C816.288,293.845 819.515,295.326 820.503,298.289 C845.798,276.489 864.294,260.575 875.992,250.548 L876.028,250.614 C880.412,244.201 885.448,237.157 891.146,229.469 C913.325,206.302 934.025,194.717 953.244,194.717 C954.762,194.717 956.281,194.794 957.801,194.945 C963.877,197.605 966.916,203.604 966.916,212.948 C966.916,214.543 966.840,216.252 966.689,218.075 L966.005,225.481 C951.344,242.193 928.746,257.423 898.211,271.171 L893.767,278.235 L893.083,285.527 L903.110,297.719 L910.972,294.871 L912.111,294.984 C935.846,280.571 953.137,270.257 964.001,264.032 C974.097,238.183 986.955,219.140 1002.580,206.909 C1007.061,189.439 1024.342,165.967 1054.422,136.494 L1054.878,136.494 L1061.829,125.442 C1069.728,110.934 1091.946,84.993 1128.484,47.620 L1139.650,47.620 C1144.586,48.381 1147.056,50.850 1147.056,55.027 L1147.056,69.839 C1147.056,83.893 1130.381,107.325 1097.036,140.140 C1029.128,207.592 995.174,249.599 995.174,266.158 L995.174,277.324 C995.932,282.262 998.401,284.730 1002.580,284.730 C1016.327,284.730 1038.166,269.387 1068.095,238.698 L1071.255,238.698 C1091.344,220.208 1110.078,204.977 1127.458,193.008 C1131.711,193.996 1133.839,196.275 1133.839,199.844 L1133.839,200.414 L1133.269,210.669 C1105.998,245.232 1092.060,267.374 1091.453,277.096 L1091.339,280.514 L1094.871,280.742 L1096.125,280.742 C1108.886,280.742 1126.128,269.843 1147.853,248.041 L1148.714,248.646 C1162.961,232.272 1181.073,216.042 1203.114,199.958 C1206.988,199.958 1211.925,197.491 1217.926,192.552 C1249.905,192.552 1265.895,206.074 1265.895,233.115 L1263.616,245.421 L1263.616,245.534 C1263.616,251.536 1265.628,254.536 1269.655,254.536 C1273.386,254.536 1278.864,251.924 1286.085,246.709 C1312.910,210.455 1333.907,192.324 1349.072,192.324 C1350.514,192.324 1351.920,192.478 1353.287,192.780 C1365.972,192.780 1372.315,204.213 1372.315,227.076 L1418.005,196.540 C1420.512,196.540 1421.765,197.833 1421.765,200.414 L1429.399,196.540 L1440.793,196.540 C1444.212,196.540 1450.553,202.883 1459.821,215.568 C1459.821,228.102 1449.681,244.623 1429.399,265.132 L1433.159,284.160 C1447.895,279.603 1460.124,269.501 1469.848,253.852 C1475.164,245.269 1479.305,240.977 1482.268,240.977 C1484.698,240.977 1486.330,243.939 1487.167,249.864 C1457.617,287.920 1433.273,306.948 1414.131,306.948 ZM488.482,206.795 C467.136,206.795 446.741,224.076 427.296,258.638 C423.269,258.638 415.863,268.931 405.078,289.515 C406.976,293.770 407.926,297.075 407.926,299.428 L407.926,299.998 C456.693,275.084 483.278,249.750 487.684,223.1000 L488.482,206.795 ZM827.682,212.606 L817.541,205.769 C798.930,205.769 781.992,221.607 766.724,253.282 C763.836,253.282 757.076,262.284 746.442,280.286 L746.442,290.541 L756.583,290.541 C788.182,272.008 811.881,246.029 827.682,212.606 ZM952.332,213.062 C947.621,212.606 945.268,211.278 945.268,209.074 L945.268,208.618 C920.124,211.429 906.147,227.495 903.338,256.815 C933.949,248.915 950.281,234.331 952.332,213.062 ZM1039.610,184.690 C1042.647,184.690 1052.523,176.031 1069.235,158.712 L1071.400,157.231 L1076.641,151.306 C1108.772,116.745 1124.837,94.526 1124.837,84.651 L1117.431,81.005 L1113.671,81.005 C1084.047,105.388 1069.235,121.416 1069.235,129.088 L1067.184,131.366 L1039.610,173.524 L1039.610,184.690 ZM1232.625,207.251 L1228.979,207.251 C1189.555,232.622 1169.844,259.702 1169.844,288.490 C1172.350,288.490 1173.604,289.706 1173.604,292.136 C1212.950,268.664 1232.625,245.307 1232.625,222.063 L1232.625,207.251 ZM1168.135,126.923 C1164.716,126.695 1163.007,124.113 1163.007,119.175 C1163.007,117.505 1163.196,115.529 1163.577,113.250 C1169.425,100.489 1177.401,94.108 1187.504,94.108 L1188.872,94.108 L1191.834,101.172 L1191.265,111.541 C1188.605,118.226 1180.896,123.353 1168.135,126.923 ZM401.432,117.694 C394.442,170.638 381.416,212.227 362.350,242.458 C354.526,254.080 345.829,263.804 336.258,271.627 C326.459,280.211 315.710,288.376 304.013,296.124 C293.530,303.113 279.021,306.606 260.488,306.606 C258.360,306.606 256.158,306.569 253.879,306.492 L253.879,306.948 L251.145,306.948 C245.220,306.948 237.774,303.227 228.812,295.782 L220.495,295.782 C210.771,302.618 185.553,306.037 144.839,306.037 L136.977,306.037 L136.977,306.948 C116.619,304.139 106.441,300.416 106.441,295.782 C113.277,290.845 126.266,285.300 145.408,279.147 L145.522,279.147 L145.522,278.691 L223.343,279.147 C245.067,249.522 271.008,212.417 301.164,167.827 C350.386,115.871 376.365,85.260 379.099,75.992 C379.099,68.397 370.287,55.863 352.665,38.391 C316.432,22.440 278.756,14.464 239.637,14.464 C229.685,14.464 219.621,14.996 209.443,16.059 C158.777,25.251 114.226,46.139 75.791,78.726 L53.572,114.959 C49.471,116.782 43.888,126.050 36.823,142.760 L34.089,148.344 L34.089,156.661 L36.823,170.562 L47.989,184.463 C69.257,193.503 92.805,198.782 118.632,200.300 L176.628,193.122 C205.796,188.185 230.635,176.982 251.145,159.510 C271.501,139.609 281.681,121.986 281.681,106.641 C281.681,94.336 267.780,85.981 239.978,81.575 L220.495,81.575 C210.771,82.183 194.591,85.904 171.956,92.741 L100.858,140.026 L100.402,140.026 C100.249,143.444 98.388,145.153 94.819,145.153 L91.970,139.570 L97.553,136.836 L98.465,136.836 C126.722,109.871 149.339,92.741 166.316,85.449 C183.293,78.156 201.353,74.094 220.495,73.257 C270.552,73.257 295.581,86.246 295.581,112.225 L295.581,114.959 C295.581,127.418 285.022,143.065 263.906,161.902 C241.953,188.109 202.871,203.074 146.662,206.795 L95.275,209.529 C72.789,205.960 54.256,201.326 39.672,195.629 L34.089,195.629 C24.365,190.920 17.870,187.197 14.605,184.463 C5.109,177.398 0.362,170.220 0.362,162.928 C0.362,162.700 0.419,160.669 0.533,156.832 C0.647,152.997 0.704,149.255 0.704,145.609 C0.704,132.620 10.882,111.276 31.240,81.575 C33.138,79.677 34.544,77.815 35.456,75.992 C36.368,74.169 43.318,68.625 56.307,59.356 C86.918,34.289 114.758,18.491 139.825,11.957 L150.991,9.223 C159.802,3.679 173.703,0.905 192.693,0.905 C202.567,0.449 213.505,0.221 225.508,0.221 C237.586,0.221 250.764,0.449 265.045,0.905 C315.937,13.515 346.701,24.188 357.337,32.922 C368.426,40.140 378.946,50.355 388.898,63.572 L392.544,67.218 C408.268,59.470 418.597,55.596 423.536,55.596 C424.903,55.596 425.852,55.901 426.385,56.508 L429.233,62.091 C410.698,72.271 401.127,79.372 400.520,83.398 L401.432,117.694 ZM214.912,290.199 C214.912,286.553 192.010,284.579 146.206,284.274 C143.167,287.009 136.407,291.794 125.924,298.631 L136.977,301.365 L136.977,302.049 L214.912,293.047 L214.912,290.199 ZM387.417,95.247 C387.264,95.247 387.113,95.324 386.961,95.475 C375.491,107.478 353.386,140.863 320.648,195.629 L292.505,240.065 C277.616,261.411 260.107,276.298 239.978,284.730 C239.978,291.643 245.636,296.580 256.956,299.542 L282.820,297.035 C294.972,293.845 312.519,281.881 335.460,261.144 L362.578,226.506 C373.212,202.656 382.441,171.018 390.266,131.594 C390.340,127.797 390.379,124.302 390.379,121.112 C390.379,103.869 389.391,95.247 387.417,95.247 Z"
  />
</svg>
